PathFileType  4	(X/Y/Z) C:\Users\antoi\Documents\MyRepositories\mobilecap\ResultsAnalysis
DataRate	CameraRate	NumFrames	NumMarkers	Units	OrigDataRate	OrigDataStartFrame	OrigNumFrames
100.0	100.0	4	51	mm	100.0	168	268
Frame#	Time	r_knee			r_shank_antsup			r_ankle			r_calc			r_5meta			r_toe			L_knee			L_shank_antsup			L_ankle			L_calc			L_5meta			L_toe			r_sh2			r_sh3			r_sh4			L_sh2			L_sh3			r_thigh1			r_thigh2			r_thigh3			r_thigh4			r_thigh5			L_thigh1			L_thigh2			L_thigh3			L_thigh4			r.ASIS			r.PSIS			L.ASIS			L.PSIS			C7			R_Shoulder			L_Shoulder			R_Sternum			L_Sternum			R_humerus			R_elbow_med			R_elbow_lat			R_forearm			R_wrist_radius			R_wrist_ulna			L_humerus			L_elbow_med			L_elbow_lat			L_forearm			L_wrist_radius			L_wrist_ulna			R_HJC			L_HJC			R_HJC_reg			L_HJC_reg			
		X1	Y1	Z1	X2	Y2	Z2	X3	Y3	Z3	X4	Y4	Z4	X5	Y5	Z5	X6	Y6	Z6	X7	Y7	Z7	X8	Y8	Z8	X9	Y9	Z9	X10	Y10	Z10	X11	Y11	Z11	X12	Y12	Z12	X13	Y13	Z13	X14	Y14	Z14	X15	Y15	Z15	X16	Y16	Z16	X17	Y17	Z17	X18	Y18	Z18	X19	Y19	Z19	X20	Y20	Z20	X21	Y21	Z21	X22	Y22	Z22	X23	Y23	Z23	X24	Y24	Z24	X25	Y25	Z25	X26	Y26	Z26	X27	Y27	Z27	X28	Y28	Z28	X29	Y29	Z29	X30	Y30	Z30	X31	Y31	Z31	X32	Y32	Z32	X33	Y33	Z33	X34	Y34	Z34	X35	Y35	Z35	X36	Y36	Z36	X37	Y37	Z37	X38	Y38	Z38	X39	Y39	Z39	X40	Y40	Z40	X41	Y41	Z41	X42	Y42	Z42	X43	Y43	Z43	X44	Y44	Z44	X45	Y45	Z45	X46	Y46	Z46	X47	Y47	Z47	X48	Y48	Z48	X49	Y49	Z49	X50	Y50	Z50	X51	Y51	Z51	

168	1.67000000	-127.33206	486.23611	-460.92707	-113.66667	407.88161	-440.23627	-309.93127	105.39373	-450.97994	-377.60795	55.37099	-503.52497	-188.15427	38.26803	-403.18721	-145.08110	60.01916	-459.27598	-145.08855	487.10341	-761.46793	-147.54910	377.18190	-780.23524	-323.83497	103.44568	-751.32023	-396.34073	55.99286	-704.56378	-193.57352	33.94576	-812.59891	-157.55819	57.53179	-752.91695	-162.76619	305.42856	-433.63185	-179.81678	441.29967	-425.15371	-238.57745	341.44441	-419.30324	-226.14716	421.23657	-782.27914	-273.22289	310.96321	-781.70244	-293.63917	744.93186	-405.72299	-208.38331	680.93028	-425.67739	-217.06635	618.53910	-401.41823	-359.92018	652.70095	-403.91629	-261.65746	588.09046	-412.17110	-320.91865	751.61773	-770.86244	-210.26971	667.99583	-772.40917	-392.94525	657.81597	-769.02428	-277.32055	580.25421	-780.63384	-332.78888	836.81997	-456.12100	-509.60153	923.00741	-523.93114	-349.93802	833.29915	-714.70639	-518.57708	919.64813	-628.18845	-263.61410	1378.72503	-590.69328	-211.60375	1330.80122	-423.32163	-214.16668	1327.66439	-744.08427	-154.09806	1253.11953	-557.85251	-159.06504	1249.33519	-612.39518	-313.18119	1111.32904	-288.07490	-370.27572	1007.24586	-343.04710	-351.57548	1035.27633	-257.80830	-201.47419	984.58020	-266.47803	-99.28741	948.93499	-293.61564	-115.66020	925.47296	-259.16986	-334.06438	1149.43287	-901.05755	-421.09990	1061.49075	-871.94970	-386.37329	1086.31102	-939.03833	-267.65682	956.71752	-964.13372	-191.87260	892.99430	-952.05029	-218.60338	874.37908	-976.51017	-433.16405	781.93498	-455.85091	-446.14207	777.76288	-685.81585	-423.81972	785.47242	-483.49891	-438.48421	779.98418	-653.83717	
169	1.68000000	-127.44871	485.61265	-460.67625	-113.48529	407.35290	-439.82491	-310.19221	105.28282	-451.12647	-377.57438	55.35850	-503.52199	-188.18107	38.27613	-403.19883	-145.18578	60.17044	-459.26931	-144.01232	486.48334	-760.82882	-146.59852	376.61793	-779.64668	-323.81696	103.44035	-751.26620	-396.31265	55.99781	-704.56993	-193.56688	33.98550	-812.56312	-157.55736	57.54893	-752.90060	-163.01793	304.73184	-433.67686	-179.95078	440.63048	-425.12388	-238.55620	341.14985	-418.92748	-225.00931	420.90824	-782.13345	-272.12821	310.80778	-781.75616	-294.34637	744.20194	-405.47448	-208.38962	680.65782	-425.89856	-217.38414	617.81042	-401.30192	-360.28322	651.84201	-403.87341	-261.95901	587.31149	-412.04192	-318.77299	750.63952	-769.11399	-209.09132	667.29377	-771.69725	-392.38730	656.32972	-768.88888	-276.50031	579.10461	-780.27339	-332.30238	834.14237	-456.43764	-507.88126	922.30280	-524.84696	-348.45606	830.52524	-715.45929	-516.48628	918.89146	-629.20464	-257.72867	1374.71660	-591.41807	-204.90352	1324.53966	-423.50233	-207.41434	1322.21117	-745.51917	-148.74835	1248.17110	-559.57574	-153.69377	1244.36956	-613.28422	-312.58993	1105.55204	-291.41113	-370.28453	1003.38408	-348.63642	-352.48277	1029.48816	-262.73474	-205.01030	970.93437	-267.26635	-103.80016	930.39128	-291.86225	-122.44930	907.04737	-258.45227	-330.58690	1143.06937	-899.65740	-418.79184	1058.39104	-868.51681	-384.61199	1080.51315	-935.99729	-274.70138	942.98969	-964.04007	-202.91862	874.26246	-953.37396	-231.31169	856.74243	-976.05561	-433.21791	780.36598	-456.55278	-445.49858	776.17488	-686.55633	-423.86500	783.76415	-484.15944	-437.93392	778.18678	-654.79196	
170	1.69000000	-127.17085	484.81539	-460.36667	-113.15964	406.36540	-439.85073	-310.41044	105.12948	-451.30743	-377.49421	55.33709	-503.54735	-188.20246	38.29089	-403.22735	-145.27458	60.32545	-459.26650	-142.59118	485.56699	-760.36720	-145.31888	375.79870	-779.16745	-323.76103	103.39669	-751.09337	-396.24825	55.97406	-704.50304	-193.57018	34.09618	-812.51195	-157.55167	57.57916	-752.82164	-163.11228	304.00525	-433.88332	-179.97775	439.88676	-424.88100	-238.37800	340.78686	-418.80004	-223.55097	420.42832	-782.24281	-270.97854	310.65778	-781.64618	-294.57195	743.12297	-405.22377	-208.35666	679.91931	-425.56697	-217.46021	616.79411	-401.02104	-360.38190	650.58510	-403.94629	-261.91851	586.06023	-412.12538	-315.69974	749.19130	-767.50147	-207.84944	665.97936	-771.58447	-391.47665	654.55908	-769.13821	-275.30522	577.75245	-780.31487	-331.75749	831.78747	-456.33681	-505.99791	921.12303	-525.83924	-346.86260	827.45749	-716.26906	-514.30831	917.65358	-630.30176	-252.28694	1370.49331	-592.19107	-198.57940	1317.96598	-423.76021	-200.68377	1316.38408	-747.30269	-143.66200	1243.06873	-560.83223	-148.45482	1239.34657	-614.31674	-311.54752	1099.47416	-294.58311	-369.17505	998.67382	-354.24243	-352.59360	1022.93600	-267.47222	-208.22378	956.10257	-268.66423	-108.49275	910.43569	-291.14328	-129.46474	887.30169	-258.75290	-326.57978	1135.52425	-898.00276	-415.85448	1053.99401	-864.69729	-382.52906	1073.62460	-932.94257	-281.67295	928.58455	-962.75962	-214.45470	855.33196	-953.12194	-243.93590	838.92954	-973.84569	-432.98634	778.79971	-457.03159	-444.49376	774.11752	-687.06319	-423.58605	781.64981	-484.42399	-437.20901	775.96312	-655.65825	
171	1.70000000	-126.48833	483.86795	-460.01191	-112.61205	405.13356	-439.91218	-310.62968	104.93994	-451.49045	-377.52046	55.22321	-503.61250	-188.22721	38.26776	-403.21676	-145.34596	60.47963	-459.25200	-140.84341	484.31921	-760.16014	-143.78800	374.80781	-778.97137	-323.70600	103.33932	-750.78215	-396.15139	55.93191	-704.39623	-193.58248	34.27393	-812.38815	-157.57050	57.62320	-752.68267	-162.94221	303.45884	-433.85988	-179.38379	439.21588	-424.45228	-238.06528	340.45208	-418.92074	-221.86801	419.69983	-782.29550	-269.88471	310.07303	-781.31087	-294.28297	741.54688	-405.08754	-208.21405	678.70492	-424.89138	-217.32394	615.59523	-400.37578	-360.17373	648.91236	-404.20804	-261.47504	584.46129	-412.42522	-314.31768	746.86015	-768.25730	-206.60622	663.99969	-771.90463	-390.17835	652.52098	-769.50231	-273.76557	576.10750	-780.51836	-331.08738	829.69798	-455.96082	-504.09976	919.63275	-526.79678	-344.85435	824.41452	-716.85535	-512.08605	915.96621	-631.30749	-247.43410	1366.12036	-593.06040	-192.60740	1310.82973	-423.79211	-194.08387	1310.27417	-749.40677	-139.16267	1238.31821	-561.11882	-143.35251	1234.62416	-615.44651	-309.74441	1092.70106	-297.41444	-366.95255	993.34362	-359.50395	-351.92867	1015.42139	-271.96278	-211.09743	940.08847	-270.75112	-113.28164	889.55399	-291.27845	-136.40672	866.72237	-259.98983	-322.12863	1126.81783	-896.42005	-412.53376	1048.28797	-860.84051	-380.33712	1065.57365	-930.15631	-288.97087	913.55216	-959.87834	-226.37480	836.41138	-951.10248	-256.66991	821.12815	-970.12495	-432.42295	777.18780	-457.29914	-442.95012	771.81606	-687.36299	-422.93642	779.58486	-484.38734	-436.06933	773.55490	-656.24671	
